<?xml version="1.0" encoding="UTF-8" standalone="no"?>
<svg
   xmlns:dc="http://purl.org/dc/elements/1.1/"
   xmlns:cc="http://creativecommons.org/ns#"
   xmlns:rdf="http://www.w3.org/1999/02/22-rdf-syntax-ns#"
   xmlns:svg="http://www.w3.org/2000/svg"
   xmlns="http://www.w3.org/2000/svg"
   xmlns:xlink="http://www.w3.org/1999/xlink"
   xmlns:sodipodi="http://sodipodi.sourceforge.net/DTD/sodipodi-0.dtd"
   xmlns:inkscape="http://www.inkscape.org/namespaces/inkscape"
   id="svg469744"
   viewBox="0 0 519.76935 82.866631"
   height="82.866631"
   width="519.76935"
   version="1.1"
   sodipodi:docname="logo.svg"
   inkscape:version="1.0.1 (3bc2e813f5, 2020-09-07)">
  <sodipodi:namedview
     pagecolor="#ffffff"
     bordercolor="#666666"
     borderopacity="1"
     objecttolerance="10"
     gridtolerance="10"
     guidetolerance="10"
     inkscape:pageopacity="0"
     inkscape:pageshadow="2"
     inkscape:window-width="1916"
     inkscape:window-height="1022"
     id="namedview25"
     showgrid="false"
     inkscape:zoom="0.84504602"
     inkscape:cx="289.76035"
     inkscape:cy="146.73412"
     inkscape:window-x="0"
     inkscape:window-y="28"
     inkscape:window-maximized="0"
     inkscape:current-layer="svg469744" />
  <metadata
     id="metadata469750">
    <rdf:rdf>
      <cc:work
         rdf:about="">
        <dc:format>image/svg+xml</dc:format>
        <dc:type
           rdf:resource="http://purl.org/dc/dcmitype/StillImage" />
      </cc:work>
    </rdf:rdf>
    <rdf:RDF>
      <cc:Work
         rdf:about="">
        <dc:format>image/svg+xml</dc:format>
        <dc:type
           rdf:resource="http://purl.org/dc/dcmitype/StillImage" />
      </cc:Work>
    </rdf:RDF>
  </metadata>
  <defs
     id="defs469748" />
  <linearGradient
     spreadMethod="pad"
     y2="0.30000001"
     x2="-0.1"
     y1="1.2"
     x1="0.30000001"
     id="3d_gradient2-logo-e8bda2f2-e968-431b-ba17-413c21203301">
    <stop
       id="stop469725"
       stop-opacity="1"
       stop-color="#ffffff"
       offset="0%" />
    <stop
       id="stop469727"
       stop-opacity="1"
       stop-color="#000000"
       offset="100%" />
  </linearGradient>
  <linearGradient
     gradientTransform="rotate(-30)"
     spreadMethod="pad"
     y2="0.30000001"
     x2="-0.1"
     y1="1.2"
     x1="0.30000001"
     id="3d_gradient3-logo-e8bda2f2-e968-431b-ba17-413c21203301">
    <stop
       id="stop469730"
       stop-opacity="1"
       stop-color="#ffffff"
       offset="0%" />
    <stop
       id="stop469732"
       stop-opacity="1"
       stop-color="#cccccc"
       offset="50%" />
    <stop
       id="stop469734"
       stop-opacity="1"
       stop-color="#000000"
       offset="100%" />
  </linearGradient>
  <g
     id="logo-group"
     transform="translate(-252.11533,-342.56668)">
    <image
       xlink:href=""
       id="container"
       x="272"
       y="144"
       width="480"
       height="480"
       style="display:none"
       sodipodi:absref="/home/alberto/local/src/github/public/barcelona-hpp/frontend/public/" />
    <g
       id="logo-center">
      <image
         xlink:href=""
         id="icon_container"
         x="0"
         y="0"
         style="display:none"
         sodipodi:absref="/home/alberto/local/src/github/public/barcelona-hpp/frontend/public/" />
      <g
         id="slogan"
         style="font-style:normal;font-weight:100;font-size:32px;line-height:1;font-family:'Exo 2';font-variant-ligatures:none;text-align:center;text-anchor:middle" />
      <g
         id="title"
         style="font-style:normal;font-weight:normal;font-size:72px;line-height:1;font-family:'Brandmark Stencil 1';font-variant-ligatures:normal;text-align:center;text-anchor:middle">
        <path
           id="path469753"
           style="font-style:normal;font-weight:normal;font-size:72px;line-height:1;font-family:'Brandmark Stencil 1';font-variant-ligatures:normal;text-align:center;text-anchor:middle"
           d="m 383.0075,-25.92 c 3.888,-2.16 6.552,-6.336 6.552,-11.088 0,-6.984 -5.616,-12.6 -12.6,-12.6 h -17.28 c -0.648,0 -1.224,0.504 -1.224,1.224 0,0.648 0.576,1.224 1.224,1.224 h 17.28 c 5.616,0 10.224,4.536 10.224,10.152 0,5.616 -4.608,10.224 -10.224,10.224 h -16.056 v -15.408 c 0,-0.648 -0.576,-1.224 -1.224,-1.224 -0.648,0 -1.224,0.576 -1.224,1.224 v 34.776 c 0,0.72 0.576,1.224 1.224,1.224 0.648,0 1.224,-0.504 1.224,-1.224 v -16.992 h 16.056 c 0.36,0 0.648,0 1.008,0 h 0.36 c 6.048,0 10.944,4.968 10.944,11.016 0,6.048 -4.896,11.016 -10.944,11.016 h -18.648 c -0.648,0 -1.224,0.504 -1.224,1.224 0,0.648 0.576,1.152 1.224,1.152 h 18.648 c 7.344,0 13.392,-5.976 13.392,-13.392 0,-5.76 -3.6,-10.656 -8.712,-12.528 z"
           stroke-width="0"
           stroke-linejoin="miter"
           stroke-miterlimit="2"
           fill="#ecedf1"
           stroke="#ecedf1"
           transform="matrix(1.67,0,0,1.67,-346.50535,425.43332)" />
        <path
           id="path469755"
           style="font-style:normal;font-weight:normal;font-size:72px;line-height:1;font-family:'Brandmark Stencil 1';font-variant-ligatures:normal;text-align:center;text-anchor:middle"
           d="m 447.72087,-8.928 c -4.248,4.176 -9.864,6.552 -15.84,6.552 -12.384,0 -22.392,-10.08 -22.392,-22.392 0,-12.384 10.008,-22.392 22.392,-22.392 5.976,0 11.592,2.304 15.84,6.552 0.432,0.432 1.22401,0.432 1.728,0 0.432,-0.504 0.432,-1.296 0,-1.728 -4.752,-4.68 -10.944,-7.272 -17.568,-7.272 -13.68,0 -24.83999,11.088 -24.83999,24.84 0,13.68 11.15999,24.768 24.83999,24.768 6.624,0 12.816,-2.52 17.568,-7.272 0.432,-0.432 0.432,-1.224 0,-1.656 -0.50399,-0.504 -1.296,-0.504 -1.728,0 z"
           stroke-width="0"
           stroke-linejoin="miter"
           stroke-miterlimit="2"
           fill="#cbd4ed"
           stroke="#cbd4ed"
           transform="matrix(1.67,0,0,1.67,-346.50535,425.43332)" />
        <path
           id="path469757"
           style="font-style:normal;font-weight:normal;font-size:72px;line-height:1;font-family:'Brandmark Stencil 1';font-variant-ligatures:normal;text-align:center;text-anchor:middle"
           d="m 503.79987,-49.608 c -0.64799,0 -1.152,0.504 -1.152,1.224 v 43.56 l -32.976,-44.28 c -0.288,-0.432 -0.86399,-0.648 -1.296,-0.432 -0.504,0.144 -0.864,0.576 -0.864,1.152 v 47.232 c 0,0.648 0.576,1.152 1.22401,1.152 0.64799,0 1.22399,-0.504 1.22399,-1.152 v -43.56 l 32.904,44.28 c 0.21601,0.288 0.57601,0.432 0.936,0.432 h 0.432 c 0.50401,-0.216 0.792,-0.648 0.792,-1.152 v -47.232 c 0,-0.72 -0.50399,-1.224 -1.224,-1.224 z"
           stroke-width="0"
           stroke-linejoin="miter"
           stroke-miterlimit="2"
           fill="#aabbe9"
           stroke="#aabbe9"
           transform="matrix(1.67,0,0,1.67,-346.50535,425.43332)" />
        <path
           id="path469759"
           style="font-style:normal;font-weight:normal;font-size:72px;line-height:1;font-family:'Brandmark Stencil 1';font-variant-ligatures:normal;text-align:center;text-anchor:middle"
           d="m 528.92337,-49.608 c -0.64799,0 -1.22399,0.504 -1.22399,1.224 v 47.232 c 0,0.648 0.576,1.152 1.22399,1.152 0.648,0 1.224,-0.504 1.224,-1.152 v -47.232 c 0,-0.72 -0.576,-1.224 -1.224,-1.224 z m 36.288,0 c -0.72,0 -1.22399,0.504 -1.22399,1.224 v 47.232 c 0,0.648 0.50399,1.152 1.22399,1.152 0.648,0 1.22401,-0.504 1.22401,-1.152 v -47.232 c 0,-0.72 -0.57601,-1.224 -1.22401,-1.224 z m -6.192,22.752 h -23.904 c -0.648,0 -1.22399,0.576 -1.22399,1.224 0,0.72 0.57599,1.224 1.22399,1.224 h 23.904 c 0.648,0 1.152,-0.504 1.152,-1.224 0,-0.648 -0.504,-1.224 -1.152,-1.224 z"
           stroke-width="0"
           stroke-linejoin="miter"
           stroke-miterlimit="2"
           fill="#88a2e5"
           stroke="#88a2e5"
           transform="matrix(1.67,0,0,1.67,-346.50535,425.43332)" />
        <path
           id="path469761"
           style="font-style:normal;font-weight:normal;font-size:72px;line-height:1;font-family:'Brandmark Stencil 1';font-variant-ligatures:normal;text-align:center;text-anchor:middle"
           d="m 590.23587,-49.608 c -0.64799,0 -1.22399,0.504 -1.22399,1.224 v 47.232 c 0,0.648 0.576,1.152 1.22399,1.152 0.648,0 1.224,-0.504 1.224,-1.152 v -47.232 c 0,-0.72 -0.576,-1.224 -1.224,-1.224 z m 16.2,0 h -10.008 c -0.648,0 -1.22399,0.504 -1.22399,1.224 0,0.648 0.57599,1.224 1.22399,1.224 h 10.008 c 6.40801,-0.072 11.592,5.184 11.592,11.592 0,6.336 -5.18399,11.592 -11.592,11.592 h -10.008 c -0.648,0 -1.22399,0.504 -1.22399,1.224 0,0.648 0.57599,1.152 1.22399,1.152 h 10.008 c 7.704,0.072 14.04,-6.264 14.04,-13.968 0,-7.776 -6.336,-14.04 -14.04,-14.04 z"
           stroke-width="0"
           stroke-linejoin="miter"
           stroke-miterlimit="2"
           fill="#6789e1"
           stroke="#6789e1"
           transform="matrix(1.67,0,0,1.67,-346.50535,425.43332)" />
        <path
           id="path469763"
           style="font-style:normal;font-weight:normal;font-size:72px;line-height:1;font-family:'Brandmark Stencil 1';font-variant-ligatures:normal;text-align:center;text-anchor:middle"
           d="m 639.45462,-49.608 c -0.64799,0 -1.22399,0.504 -1.22399,1.224 v 47.232 c 0,0.648 0.576,1.152 1.22399,1.152 0.648,0 1.224,-0.504 1.224,-1.152 v -47.232 c 0,-0.72 -0.576,-1.224 -1.224,-1.224 z m 16.2,0 h -10.008 c -0.648,0 -1.22399,0.504 -1.22399,1.224 0,0.648 0.57599,1.224 1.22399,1.224 h 10.008 c 6.40801,-0.072 11.592,5.184 11.592,11.592 0,6.336 -5.18399,11.592 -11.592,11.592 h -10.008 c -0.648,0 -1.22399,0.504 -1.22399,1.224 0,0.648 0.57599,1.152 1.22399,1.152 h 10.008 c 7.704,0.072 14.04,-6.264 14.04,-13.968 0,-7.776 -6.336,-14.04 -14.04,-14.04 z"
           stroke-width="0"
           stroke-linejoin="miter"
           stroke-miterlimit="2"
           fill="#4670dd"
           stroke="#4670dd"
           transform="matrix(1.67,0,0,1.67,-346.50535,425.43332)" />
      </g>
      <image
         xlink:href=""
         id="icon"
         x="0"
         y="0"
         style="display:none"
         sodipodi:absref="/home/alberto/local/src/github/public/barcelona-hpp/frontend/public/" />
    </g>
  </g>
</svg>
